<?xml version="1.0" encoding="utf-8"?>
<!-- Generator: Adobe Illustrator 17.0.0, SVG Export Plug-In . SVG Version: 6.00 Build 0)  -->
<!DOCTYPE svg PUBLIC "-//W3C//DTD SVG 1.1//EN" "http://www.w3.org/Graphics/SVG/1.1/DTD/svg11.dtd">
<svg version="1.1" id="Capa_1" xmlns="http://www.w3.org/2000/svg" xmlns:xlink="http://www.w3.org/1999/xlink" x="0px" y="0px"
	 width="848.5px" height="117px" viewBox="0 -1 848.5 117" enable-background="new 0 -1 848.5 117" xml:space="preserve">
<g>
	<path fill="#7C8080" d="M502.278,50.458l1.917-2.296c1.327,1.095,2.717,1.79,4.402,1.79c1.327,0,2.129-0.526,2.129-1.39v-0.042
		c0-0.822-0.506-1.244-2.971-1.876c-2.97-0.758-4.888-1.579-4.888-4.509v-0.042c0-2.676,2.148-4.445,5.164-4.445
		c2.149,0,3.981,0.674,5.477,1.876l-1.687,2.444c-1.306-0.908-2.591-1.454-3.835-1.454c-1.241,0-1.896,0.568-1.896,1.283v0.044
		c0,0.969,0.633,1.283,3.182,1.936c2.991,0.781,4.678,1.855,4.678,4.426v0.041c0,2.93-2.233,4.573-5.415,4.573
		C506.301,52.818,504.048,52.038,502.278,50.458"/>
	<polygon fill="#7C8080" points="517.09,37.859 528.214,37.859 528.214,40.744 520.313,40.744 520.313,43.736 527.266,43.736 
		527.266,46.623 520.313,46.623 520.313,49.72 528.319,49.72 528.319,52.606 517.09,52.606 	"/>
	<path fill="#7C8080" d="M530.704,45.274v-0.041c0-4.195,3.16-7.626,7.689-7.626c2.782,0,4.447,0.926,5.816,2.275l-2.066,2.381
		c-1.136-1.032-2.295-1.665-3.77-1.665c-2.487,0-4.276,2.065-4.276,4.593v0.042c0,2.529,1.747,4.635,4.276,4.635
		c1.687,0,2.718-0.674,3.877-1.729l2.065,2.087c-1.517,1.623-3.201,2.634-6.048,2.634C533.928,52.859,530.704,49.51,530.704,45.274"
		/>
	<path fill="#7C8080" d="M553.528,45.022c1.579,0,2.485-0.843,2.485-2.087v-0.042c0-1.39-0.968-2.107-2.55-2.107h-3.222v4.236
		H553.528z M546.995,37.859h6.742c1.874,0,3.329,0.526,4.298,1.496c0.822,0.821,1.263,1.981,1.263,3.37v0.042
		c0,2.383-1.284,3.878-3.159,4.572l3.603,5.267h-3.792l-3.162-4.719h-0.042h-2.506v4.719h-3.245V37.859z"/>
	<polygon fill="#7C8080" points="562.577,37.859 573.701,37.859 573.701,40.744 565.8,40.744 565.8,43.736 572.753,43.736 
		572.753,46.623 565.8,46.623 565.8,49.72 573.806,49.72 573.806,52.606 562.577,52.606 	"/>
	<polygon fill="#7C8080" points="580.421,40.851 575.934,40.851 575.934,37.859 588.154,37.859 588.154,40.851 583.667,40.851 
		583.667,52.606 580.421,52.606 	"/>
	<path fill="#7C8080" d="M597.512,46.433l-1.958-4.782l-1.959,4.782H597.512z M594.1,37.752h2.992l6.319,14.854h-3.39l-1.35-3.308
		h-6.234l-1.35,3.308h-3.308L594.1,37.752z"/>
	<path fill="#7C8080" d="M612.361,45.022c1.58,0,2.485-0.843,2.485-2.087v-0.042c0-1.39-0.968-2.107-2.55-2.107h-3.222v4.236
		H612.361z M605.828,37.859h6.742c1.875,0,3.328,0.526,4.298,1.496c0.821,0.821,1.263,1.981,1.263,3.37v0.042
		c0,2.383-1.283,3.878-3.159,4.572l3.603,5.267h-3.792l-3.16-4.719h-0.043h-2.506v4.719h-3.245V37.859z"/>
	<path fill="#7C8080" d="M624.14,32.971l2.759,1.201l-2.697,2.529h-2.442L624.14,32.971z M621.485,37.857h3.246v14.748h-3.246
		V37.857z"/>
	<path fill="#7C8080" d="M636.905,46.433l-1.958-4.782l-1.959,4.782H636.905z M633.492,37.752h2.993l6.318,14.854h-3.391
		l-1.349-3.308h-6.235l-1.349,3.308h-3.308L633.492,37.752z"/>
	<path fill="#7C8080" d="M657.375,49.678c2.655,0,4.447-1.791,4.447-4.404v-0.043c0-2.61-1.791-4.444-4.447-4.444h-2.506v8.892
		H657.375z M651.624,37.859h5.752c4.636,0,7.837,3.182,7.837,7.333v0.039c0,4.152-3.201,7.376-7.837,7.376h-5.752V37.859z"/>
	<polygon fill="#7C8080" points="668.354,37.859 679.478,37.859 679.478,40.744 671.577,40.744 671.577,43.736 678.53,43.736 
		678.53,46.623 671.577,46.623 671.577,49.72 679.582,49.72 679.582,52.606 668.354,52.606 	"/>
	<path fill="#7C8080" d="M512.013,71.477l-1.959-4.782l-1.958,4.782H512.013z M508.6,62.797h2.992l6.319,14.854h-3.391l-1.35-3.308
		h-6.234l-1.349,3.308h-3.309L508.6,62.797z"/>
	<path fill="#7C8080" d="M526.079,74.723c2.655,0,4.448-1.791,4.448-4.405v-0.042c0-2.611-1.792-4.446-4.448-4.446h-2.506v8.892
		H526.079z M520.327,62.903h5.752c4.636,0,7.838,3.182,7.838,7.333v0.04c0,4.151-3.202,7.374-7.838,7.374h-5.752V62.903z"/>
	<polygon fill="#7C8080" points="537.057,62.903 540.555,62.903 544.431,69.139 548.308,62.903 551.806,62.903 551.806,77.651 
		548.582,77.651 548.582,68.022 544.431,74.323 544.348,74.323 540.239,68.087 540.239,77.651 537.057,77.651 	"/>
	<rect x="555.808" y="62.903" fill="#7C8080" width="3.247" height="14.749"/>
	<polygon fill="#7C8080" points="563.003,62.903 565.995,62.903 572.905,71.983 572.905,62.903 576.108,62.903 576.108,77.651 
		573.348,77.651 566.206,68.276 566.206,77.651 563.003,77.651 	"/>
	<rect x="580.1" y="62.903" fill="#7C8080" width="3.245" height="14.749"/>
	<path fill="#7C8080" d="M586.231,75.502l1.916-2.296c1.328,1.095,2.717,1.79,4.402,1.79c1.328,0,2.129-0.526,2.129-1.39v-0.042
		c0-0.821-0.506-1.243-2.971-1.876c-2.97-0.758-4.888-1.578-4.888-4.509v-0.042c0-2.676,2.149-4.444,5.164-4.444
		c2.149,0,3.981,0.674,5.477,1.875l-1.687,2.444c-1.306-0.908-2.591-1.454-3.835-1.454c-1.241,0-1.896,0.569-1.896,1.284v0.044
		c0,0.969,0.633,1.284,3.182,1.937c2.991,0.78,4.678,1.855,4.678,4.426v0.041c0,2.93-2.233,4.573-5.415,4.573
		C590.254,77.862,588,77.083,586.231,75.502"/>
	<polygon fill="#7C8080" points="604.318,65.895 599.831,65.895 599.831,62.903 612.051,62.903 612.051,65.895 607.563,65.895 
		607.563,77.651 604.318,77.651 	"/>
	<path fill="#7C8080" d="M621.093,70.066c1.579,0,2.485-0.843,2.485-2.086v-0.042c0-1.389-0.969-2.107-2.551-2.107h-3.222v4.236
		H621.093z M614.559,62.903h6.743c1.874,0,3.328,0.526,4.297,1.496c0.822,0.82,1.263,1.981,1.263,3.37v0.042
		c0,2.383-1.282,3.878-3.159,4.572l3.604,5.267h-3.792l-3.161-4.719h-0.042h-2.507v4.719h-3.246V62.903z"/>
	<path fill="#7C8080" d="M638.911,71.477l-1.958-4.782l-1.958,4.782H638.911z M635.5,62.797h2.992l6.319,14.854h-3.39l-1.35-3.308
		h-6.234l-1.35,3.308h-3.307L635.5,62.797z"/>
	<path fill="#7C8080" d="M645.78,70.318v-0.041c0-4.194,3.159-7.626,7.688-7.626c2.782,0,4.447,0.926,5.815,2.275l-2.065,2.38
		c-1.137-1.032-2.295-1.665-3.77-1.665c-2.487,0-4.277,2.065-4.277,4.593v0.042c0,2.529,1.748,4.635,4.277,4.635
		c1.687,0,2.717-0.675,3.876-1.73l2.065,2.087c-1.516,1.623-3.201,2.634-6.047,2.634C649.004,77.903,645.78,74.554,645.78,70.318"/>
	<rect x="662.135" y="62.903" fill="#7C8080" width="3.246" height="14.749"/>
	<path fill="#7C8080" d="M677.661,58.015l2.759,1.2l-2.697,2.53h-2.443L677.661,58.015z M680.863,70.318v-0.041
		c0-2.53-1.854-4.636-4.465-4.636c-2.613,0-4.425,2.065-4.425,4.593v0.042c0,2.529,1.852,4.635,4.465,4.635
		C679.051,74.912,680.863,72.848,680.863,70.318z M668.581,70.318v-0.041c0-4.194,3.308-7.626,7.857-7.626
		c4.553,0,7.817,3.391,7.817,7.584v0.042c0,4.194-3.308,7.626-7.857,7.626C671.844,77.903,668.581,74.513,668.581,70.318z"/>
	<polygon fill="#7C8080" points="687.396,62.903 690.388,62.903 697.298,71.983 697.298,62.903 700.501,62.903 700.501,77.651 
		697.741,77.651 690.599,68.276 690.599,77.651 687.396,77.651 	"/>
	<polygon fill="#7C8080" points="715.428,72.088 709.76,63.154 713.554,63.154 717.071,69.075 720.654,63.154 724.34,63.154 
		718.673,72.026 718.673,77.902 715.428,77.902 	"/>
	<polygon fill="#7C8080" points="732.905,63.155 744.135,63.155 744.135,66.104 736.151,66.104 736.151,69.245 743.187,69.245 
		743.187,72.194 736.151,72.194 736.151,77.903 732.905,77.903 	"/>
	<rect x="747.039" y="63.155" fill="#7C8080" width="3.246" height="14.749"/>
	<polygon fill="#7C8080" points="754.237,63.155 757.229,63.155 764.139,72.236 764.139,63.155 767.342,63.155 767.342,77.903 
		764.582,77.903 757.44,68.528 757.44,77.903 754.237,77.903 	"/>
	<path fill="#7C8080" d="M779.479,71.73l-1.959-4.782l-1.958,4.782H779.479z M776.066,63.05h2.992l6.32,14.854h-3.391l-1.349-3.308
		h-6.235l-1.349,3.308h-3.308L776.066,63.05z"/>
	<polygon fill="#7C8080" points="787.794,63.155 790.786,63.155 797.696,72.236 797.696,63.155 800.899,63.155 800.899,77.903 
		798.139,77.903 790.997,68.528 790.997,77.903 787.794,77.903 	"/>
	<polygon fill="#7C8080" points="804.136,75.439 812.247,66 804.389,66 804.389,63.155 816.42,63.155 816.42,65.621 808.307,75.059 
		816.42,75.059 816.42,77.903 804.136,77.903 	"/>
	<path fill="#7C8080" d="M828.322,71.73l-1.958-4.782l-1.958,4.782H828.322z M824.91,63.05h2.992l6.319,14.854h-3.391l-1.349-3.308
		h-6.235l-1.349,3.308h-3.308L824.91,63.05z"/>
	<path fill="#7C8080" d="M835.744,75.755l1.916-2.296c1.328,1.094,2.718,1.789,4.402,1.789c1.328,0,2.129-0.525,2.129-1.389v-0.042
		c0-0.822-0.506-1.243-2.971-1.876c-2.97-0.757-4.888-1.579-4.888-4.508V67.39c0-2.675,2.149-4.444,5.163-4.444
		c2.149,0,3.981,0.674,5.477,1.876l-1.687,2.443c-1.306-0.907-2.591-1.453-3.835-1.453c-1.242,0-1.896,0.568-1.896,1.283v0.044
		c0,0.967,0.633,1.283,3.182,1.935c2.992,0.781,4.678,1.856,4.678,4.427v0.04c0,2.931-2.234,4.573-5.414,4.573
		C839.767,78.114,837.513,77.336,835.744,75.755"/>
	<rect x="479.301" y="15.871" fill="#7C8080" width="1.239" height="84.025"/>
	<path fill="#00B056" d="M153.529,63.999c0.598,0.908,1.423,1.321,2.583,1.348c1.582,0.038,2.591-1.513,2.591-1.513l26.208-33.578
		c2.164-2.258,4.298-0.433,4.298-0.433c2.072,2.164,0.526,4.145,0.526,4.145l-5.861,7.498l-0.001,0.04
		c-0.503,0.519-0.815,1.226-0.815,2.004c0,0.716,0.263,1.366,0.691,1.871v0.014l5.897,7.473l18.575-23.627l-7.423-9.463
		l-1.371-1.783c-1.204-1.732-3.895-2.134-3.895-2.134h-11.124c-2.947,0-4.556,2.04-4.556,2.04l-31.15,39.975L153.529,63.999z"/>
	<path fill="#00B056" d="M152.209,43.508l-7.452-9.556c-1.517-2.442,0.695-4.192,0.695-4.192c2.783-1.623,4.396,0.882,4.396,0.882
		l6.165,7.918l7.298-9.402L154.9,18.335c-2.01-2.876-5.07-2.474-5.07-2.474h-10.05c-3.217,0-4.599,2.001-4.599,2.001l-8.884,11.277
		l18.576,23.728L152.209,43.508z"/>
	<path fill="#00B056" d="M180.93,51.654c0,0-0.858-1.328-2.508-1.302c-1.72,0.025-2.415,1.169-2.415,1.169L149.53,85.524
		c-2.144,2.357-4.451,0.462-4.451,0.462c-2.073-2.166-0.373-4.174-0.373-4.174l5.937-7.626l0.002-0.04
		c0.503-0.519,0.813-1.224,0.813-2.004c0-0.713-0.261-1.366-0.691-1.87l0.002-0.013l-5.897-7.473l-18.637,23.894l10.391,13.151
		l16.327,0.043l32.841-42L180.93,51.654z"/>
	<path fill="#00B056" d="M182.299,72.143l7.514,9.668c1.732,2.4-0.453,4.173-0.453,4.173c-2.887,1.938-4.651-0.957-4.651-0.957
		l-6.287-7.987l-7.299,9.401l10.526,13.472l16.204-0.042l10.389-13.318l-18.615-23.781L182.299,72.143z"/>
	<path fill="#00B056" d="M208.106,61.915c-2.186,0-3.962-1.793-3.962-3.999c0-2.206,1.775-4,3.962-4c2.186,0,3.962,1.793,3.962,4
		C212.068,60.122,210.292,61.915,208.106,61.915 M208.106,50.479c-4.155,0-7.535,3.335-7.535,7.437c0,4.1,3.38,7.438,7.535,7.438
		c4.155,0,7.536-3.338,7.536-7.438C215.642,53.814,212.26,50.479,208.106,50.479z"/>
	<path fill="#00B056" d="M167.214,4.438c2.185,0,3.962,1.794,3.962,4c0,2.203-1.776,3.999-3.962,3.999
		c-2.184,0-3.962-1.795-3.962-3.999C163.252,6.233,165.03,4.438,167.214,4.438 M167.214,15.876c4.155,0,7.536-3.338,7.536-7.437
		c0-4.101-3.381-7.438-7.536-7.438c-4.156,0-7.534,3.337-7.534,7.438C159.68,12.538,163.058,15.876,167.214,15.876z"/>
	<path fill="#00B056" d="M122.251,57.888c0-2.206,1.779-4,3.964-4c2.185,0,3.963,1.793,3.963,4c0,2.206-1.779,3.999-3.963,3.999
		C124.029,61.887,122.251,60.094,122.251,57.888 M133.75,57.888c0-4.101-3.381-7.437-7.535-7.437c-4.155,0-7.536,3.337-7.536,7.437
		c0,4.1,3.381,7.438,7.536,7.438C130.368,65.326,133.75,61.988,133.75,57.888z"/>
	<path fill="#00B056" d="M167.225,111.352c-2.186,0-3.962-1.793-3.962-3.999c0-2.203,1.776-3.999,3.962-3.999
		c2.184,0,3.962,1.795,3.962,3.999C171.187,109.559,169.408,111.352,167.225,111.352 M167.225,99.915
		c-4.155,0-7.536,3.338-7.536,7.437c0,4.1,3.381,7.438,7.536,7.438c4.155,0,7.534-3.338,7.534-7.438
		C174.758,103.253,171.38,99.915,167.225,99.915z"/>
	<path fill="#7C8080" d="M88.57,8.393H2.001v57.728c0,31.684,43.264,41.232,43.264,41.232h0.04c0,0,43.264-9.548,43.264-41.232
		V8.393z M86.463,10.5v55.621c0,6.738-2.12,12.96-6.3,18.492c-3.405,4.507-8.184,8.593-14.203,12.135
		c-9.215,5.428-18.577,7.925-20.675,8.444c-2.089-0.516-11.374-2.988-20.583-8.393c-6.042-3.545-10.839-7.63-14.26-12.144
		c-4.202-5.543-6.332-11.778-6.332-18.534V10.5H86.463z"/>
	<path fill="#7C8080" d="M55.77,26.869v-5.301h-5.453v4.948h-2.13v-4.948h-5.616v4.948H40.44v-4.948h-5.542v5.304l2.705,4.648
		c0.093,0.163,0.143,0.349,0.143,0.535l0.021,24.276h2.622l-0.028-8.719c0-2.058,2.341-3.926,4.909-3.926
		c2.571,0,4.909,1.868,4.909,3.924l0.027,8.72h2.69l-0.01-9.205c-0.003-0.042-0.007-0.084-0.007-0.128v-4.564
		c0-0.024,0.002-0.047,0.004-0.07l-0.002-3.321c-0.002-0.007-0.002-0.011-0.002-0.019v-1.45l-0.005-5.517
		c0-0.191,0.051-0.378,0.148-0.542L55.77,26.869z"/>
	<path fill="#7C8080" d="M35.64,56.899l-0.008-8.045l-0.968,0.581c-0.358,0.215-0.806,0.202-1.149-0.032l-1.169-0.8
		c0.003,0.034,0.005,0.068,0.003,0.103l-0.04,3.099c-0.004,0.327-0.158,0.627-0.407,0.824c0.121,0.041,0.235,0.101,0.337,0.183
		c1.418,1.135,1.522,2.762,1.218,4.087H35.64z"/>
	<path fill="#7C8080" d="M45.272,45.817c-1.633,0-2.78,1.164-2.78,1.796l0.028,8.72h5.558l-0.025-8.719
		C48.053,46.981,46.907,45.817,45.272,45.817"/>
	<path fill="#7C8080" d="M12.822,56.899c-0.302-0.671-0.53-1.487-0.681-2.446c-0.268-1.68-0.214-3.226-0.212-3.292
		c0.017-0.451,0.318-0.843,0.75-0.976l2.328-0.72l-2.629-1.859c-0.282-0.2-0.449-0.525-0.449-0.87v-2.948
		c0-0.398,0.22-0.761,0.572-0.946l1.027-0.533v-1.003l-0.935-0.377c-0.401-0.164-0.664-0.554-0.666-0.988l-0.003-3.545
		c0-0.585,0.47-1.06,1.054-1.066l3.286-0.031c-0.059-0.869-0.075-2.057,0.136-3.041c0.286-1.331,1.041-2.775,1.402-3.418
		l-0.174-1.231c-0.044-0.306,0.047-0.615,0.249-0.847c0.204-0.233,0.497-0.367,0.805-0.367h1.772c0.202,0,0.4,0.057,0.571,0.165
		l4.329,2.745h1.991c0.289,0,0.569,0.119,0.768,0.328c0.202,0.212,0.309,0.493,0.295,0.783l-0.15,3.413
		c-0.013,0.287-0.141,0.552-0.346,0.738l1.324,0.004c0.288,0.002,0.565,0.12,0.765,0.327l0.603,0.626l0.459-0.35l0.768-1.619
		c0.177-0.373,0.552-0.609,0.963-0.609h2.826v-0.601l-2.704-4.648c-0.096-0.164-0.145-0.347-0.145-0.535v-6.657
		c0-0.588,0.477-1.066,1.065-1.066h6.606h2.13h5.616h2.131h6.517c0.588,0,1.065,0.477,1.065,1.066v6.657
		c0,0.19-0.051,0.377-0.148,0.542l-2.745,4.645l0.002,0.598h2.802c0.411,0,0.785,0.236,0.961,0.609l0.77,1.619l0.457,0.35
		l0.605-0.626c0.2-0.207,0.475-0.324,0.763-0.327l1.323-0.004c-0.204-0.186-0.331-0.451-0.344-0.738l-0.151-3.413
		c-0.013-0.29,0.093-0.572,0.294-0.783c0.201-0.209,0.478-0.328,0.77-0.328h1.992l4.33-2.745c0.17-0.108,0.368-0.165,0.568-0.165
		h1.773c0.308,0,0.601,0.133,0.803,0.367c0.204,0.232,0.293,0.541,0.249,0.847l-0.174,1.231c0.363,0.643,1.118,2.086,1.402,3.418
		c0.213,0.984,0.194,2.173,0.135,3.041l3.287,0.031c0.585,0.006,1.056,0.48,1.056,1.066l-0.005,3.545
		c0,0.433-0.263,0.824-0.664,0.988l-0.936,0.377v1.003l1.026,0.533c0.352,0.185,0.575,0.548,0.575,0.946v2.948
		c0,0.345-0.168,0.67-0.45,0.87l-2.629,1.859l2.33,0.72c0.43,0.133,0.732,0.525,0.748,0.976c0.003,0.066,0.056,1.612-0.21,3.292
		c-0.152,0.959-0.381,1.775-0.681,2.446h3.872c0.017,0,0.034,0.003,0.05,0.006V15.759H8.966v41.14H12.822z"/>
	<path fill="#7C8080" d="M58.363,52.811c0.101-0.08,0.217-0.143,0.337-0.181c-0.251-0.196-0.403-0.499-0.409-0.826l-0.04-3.099
		c0-0.035,0-0.067,0.004-0.103l-1.168,0.8c-0.343,0.234-0.792,0.247-1.15,0.034l-0.917-0.55l0.007,8.012h2.116
		C56.841,55.575,56.945,53.948,58.363,52.811"/>
	<path fill="#7C8080" d="M72.502,78.901c-0.589,0-1.066-0.477-1.066-1.065v-6.958c0-0.517-0.312-1.157-0.794-1.634
		c-0.405-0.398-1.107-0.874-2.187-0.851c-1.632,0.026-2.611,1.29-2.748,2.537v6.905c0,0.284-0.112,0.554-0.31,0.753
		c-0.2,0.2-0.472,0.312-0.754,0.312h-6.328c-0.588,0-1.063-0.477-1.063-1.065v-6.958c0-0.517-0.314-1.157-0.796-1.634
		c-0.405-0.398-1.111-0.874-2.185-0.851c-0.714,0.012-1.354,0.27-1.848,0.732l5.202,26.534c7.322-3.247,15.992-8.54,20.671-16.759
		H72.502z"/>
	<path fill="#7C8080" d="M55.583,96.319l-7.313-37.29h-5.935l-7.304,37.305c-0.011,0.051-0.026,0.099-0.044,0.148
		c5.078,2.084,9.197,3.143,10.347,3.504c1.167-0.367,5.261-1.419,10.302-3.482C55.614,96.444,55.597,96.384,55.583,96.319"/>
	<path fill="#7C8080" d="M38.195,69.092c-0.491-0.439-1.117-0.684-1.808-0.695c-0.019,0-0.038,0-0.057,0
		c-1.041,0-1.731,0.462-2.129,0.852c-0.482,0.476-0.794,1.116-0.794,1.634v6.957c0,0.588-0.476,1.066-1.066,1.066h-6.327
		c-0.283,0-0.554-0.112-0.752-0.312c-0.2-0.2-0.314-0.472-0.314-0.754v-6.905c-0.135-1.248-1.115-2.512-2.747-2.538
		c-0.019,0-0.038,0-0.059,0c-1.041,0-1.731,0.462-2.129,0.852c-0.481,0.476-0.794,1.116-0.794,1.634v6.957
		c0,0.588-0.477,1.066-1.065,1.066h-5.772c4.672,8.191,13.31,13.479,20.616,16.728L38.195,69.092z"/>
	<path fill="#7C8080" d="M81.653,59.03H50.44l1.532,7.819c0.685-0.367,1.456-0.573,2.263-0.586c1.401-0.025,2.73,0.497,3.713,1.465
		c0.897,0.881,1.43,2.06,1.43,3.15v5.894h4.198v-5.894c0-0.033,0.002-0.066,0.004-0.098c0.235-2.535,2.316-4.477,4.839-4.517
		c1.42-0.025,2.733,0.497,3.715,1.465c0.897,0.881,1.431,2.06,1.431,3.15v5.894h5.816c1.456-3.194,2.32-6.788,2.32-10.831v-6.917
		C81.686,59.026,81.669,59.03,81.653,59.03"/>
	<path fill="#7C8080" d="M17.091,76.775v-5.892c0-1.093,0.535-2.271,1.43-3.152c0.982-0.967,2.305-1.481,3.715-1.464
		c2.523,0.04,4.605,1.982,4.839,4.516c0.004,0.033,0.006,0.067,0.006,0.1v5.892h4.198v-5.892c0-1.093,0.533-2.271,1.43-3.152
		c0.983-0.967,2.306-1.481,3.714-1.464c0.787,0.012,1.542,0.21,2.216,0.562l1.527-7.799H8.968v6.91c0,4.045,0.865,7.64,2.325,10.836
		H17.091z"/>
	<path fill="#7C8080" d="M19.594,54.707h1.727c0.132,0.215,0.208,0.46,0.242,0.715c0.006,0.143,0.015,0.288,0.027,0.431
		c-0.004,0.376-0.07,0.744-0.145,1.046h-6.048c-0.873-0.595-1.309-2.961-1.345-4.908l2.645-0.82c0.446-0.137,0.75-0.55,0.75-1.016
		v-1.022c0-0.344-0.167-0.67-0.449-0.868l-2.94-2.081v-1.751l1.026-0.535c0.352-0.183,0.572-0.546,0.572-0.944v-2.368
		c0-0.432-0.262-0.823-0.664-0.986l-0.935-0.378l-0.001-1.773l2.79-0.025l1.326,2.172l0.009,3.032l-0.911,2.875
		c-0.103,0.325-0.044,0.677,0.156,0.952c0.2,0.274,0.521,0.434,0.86,0.434h0.805c0.523,0,0.966-0.378,1.051-0.893
		c0.076-0.471,0.33-1.829,0.568-2.444c0.183-0.475,0.942-1.494,1.422-2.066c0.335-0.404,0.329-0.99-0.014-1.385l-3.661-4.203
		c-0.072-0.632-0.202-2.132,0.025-3.195c0.248-1.153,1.049-2.623,1.336-3.092c0.13-0.212,0.182-0.461,0.146-0.706l-0.055-0.381
		h0.237l4.329,2.744c0.171,0.108,0.369,0.165,0.571,0.165h1.185l-0.07,1.59l-1.395,0.506c-0.424,0.154-0.704,0.558-0.702,1.007
		l0.008,1.094c0.003,0.586,0.477,1.056,1.061,1.058l3.645,0.012l0.952,0.986c0.375,0.39,0.984,0.436,1.414,0.106
		c0,0,1.657-1.319,1.731-1.472l0.59-1.246h2.126v2.503v1.374c0,0-3.886,1.332-4.208,1.49c-0.253,0.127-0.392,1.33-0.348,1.62
		c0.043,0.29,0.028,0.405,0.447,0.715c0,0,1.131,0.889,1.478,1.014l1.13-1.08l1.496,0.101l-0.002,3.591l-1.428,0.856l-4.467-3.057
		c-0.464-0.317-1.095-0.22-1.441,0.224l-0.699,0.894c-0.339,0.434-0.291,1.056,0.11,1.434l2.557,2.393l-0.027,1.947l-2.563,1.139
		c-0.384,0.173-0.634,0.553-0.634,0.974v0.434c0,0.589,0.478,1.066,1.066,1.066h3.084c0.532,0.661,0.323,1.597,0.099,2.192h-7.108
		c-0.242-0.253-0.367-0.7-0.419-1.201c-0.001-0.135-0.011-0.273-0.024-0.412c-0.018-0.676,0.068-1.374,0.16-1.773l1.654-2.118
		c0.135-0.174,0.215-0.385,0.223-0.605l0.05-1.016c0.018-0.363-0.153-0.712-0.449-0.921c-0.298-0.211-0.681-0.255-1.018-0.116
		l-2.669,1.089c-0.348,0.143-0.596,0.458-0.651,0.83l-0.157,1.066l-1.55,0.468c-0.449,0.136-0.757,0.55-0.757,1.019v0.431
		C18.528,54.231,19.005,54.707,19.594,54.707"/>
	<path fill="#7C8080" d="M71.008,54.707h-1.727c-0.132,0.215-0.208,0.46-0.244,0.715c-0.004,0.143-0.013,0.288-0.026,0.431
		c0.003,0.376,0.07,0.744,0.145,1.046h6.048c0.872-0.595,1.307-2.961,1.345-4.908l-2.645-0.82c-0.448-0.137-0.752-0.55-0.752-1.016
		v-1.022c0-0.344,0.168-0.67,0.451-0.868l2.939-2.081v-1.751l-1.026-0.535c-0.352-0.183-0.573-0.546-0.573-0.944v-2.368
		c0-0.432,0.264-0.823,0.665-0.986l0.936-0.378l0.001-1.773l-2.79-0.025l-1.326,2.172l-0.009,3.032l0.911,2.875
		c0.103,0.325,0.044,0.677-0.156,0.952c-0.202,0.274-0.521,0.434-0.86,0.434h-0.805c-0.522,0-0.966-0.378-1.051-0.893
		c-0.079-0.471-0.33-1.829-0.568-2.444c-0.183-0.475-0.943-1.494-1.422-2.066c-0.335-0.404-0.329-0.99,0.013-1.385l3.662-4.203
		c0.072-0.632,0.202-2.132-0.025-3.195c-0.247-1.153-1.049-2.623-1.335-3.092c-0.13-0.212-0.181-0.461-0.146-0.706l0.053-0.381
		h-0.236l-4.329,2.744c-0.171,0.108-0.368,0.165-0.57,0.165h-1.187l0.072,1.59l1.395,0.506c0.423,0.154,0.704,0.558,0.702,1.007
		l-0.008,1.094c-0.003,0.586-0.477,1.056-1.061,1.058L61.824,36.7l-0.952,0.986c-0.376,0.39-0.984,0.436-1.413,0.106
		c0,0-1.658-1.319-1.732-1.472l-0.59-1.246h-2.126v2.503v1.374c0,0,3.886,1.332,4.207,1.49c0.254,0.127,0.393,1.33,0.349,1.62
		c-0.043,0.29-0.029,0.405-0.447,0.715c0,0-1.134,0.889-1.478,1.014l-1.129-1.08l-1.496,0.101l0.002,3.591l1.429,0.856l4.466-3.057
		c0.464-0.317,1.095-0.22,1.439,0.224l0.701,0.894c0.339,0.434,0.291,1.056-0.113,1.434l-2.554,2.393l0.027,1.947l2.563,1.139
		c0.383,0.173,0.633,0.553,0.633,0.974v0.434c0,0.589-0.478,1.066-1.066,1.066H59.46c-0.532,0.661-0.323,1.597-0.099,2.192h7.107
		c0.242-0.253,0.367-0.7,0.416-1.201c0.004-0.135,0.013-0.273,0.026-0.412c0.018-0.676-0.068-1.374-0.16-1.773l-1.654-2.118
		c-0.135-0.174-0.215-0.385-0.226-0.605l-0.048-1.016c-0.018-0.363,0.151-0.712,0.45-0.921c0.297-0.211,0.68-0.255,1.017-0.116
		l2.669,1.089c0.348,0.143,0.596,0.458,0.65,0.83l0.159,1.066l1.549,0.468c0.449,0.136,0.757,0.55,0.757,1.019v0.431
		C72.074,54.231,71.597,54.707,71.008,54.707"/>
	<path fill="#7C8080" d="M238.43,45.268v-0.04c0-4.047,2.971-7.63,7.397-7.63c2.487,0,4.026,0.718,5.5,1.96l-1.075,1.266
		c-1.138-0.99-2.401-1.688-4.487-1.688c-3.268,0-5.605,2.762-5.605,6.05v0.042c0,3.519,2.253,6.13,5.835,6.13
		c1.686,0,3.245-0.653,4.257-1.475v-3.665h-4.487V44.72h6.09v5.881c-1.371,1.222-3.436,2.255-5.923,2.255
		C241.296,52.856,238.43,49.483,238.43,45.268"/>
	<path fill="#7C8080" d="M270.626,45.268v-0.04c0-3.35-2.447-6.092-5.816-6.092c-3.373,0-5.775,2.697-5.775,6.05v0.042
		c0,3.35,2.442,6.09,5.815,6.09C268.222,51.318,270.626,48.62,270.626,45.268 M257.306,45.268v-0.04c0-4.067,3.056-7.63,7.544-7.63
		c4.489,0,7.503,3.519,7.503,7.588v0.042c0,4.067-3.056,7.628-7.543,7.628C260.32,52.856,257.306,49.335,257.306,45.268z"/>
	<path fill="#7C8080" d="M284.615,45.902h-4.657v5.204h4.953c2.233,0,3.623-0.992,3.623-2.635v-0.042
		C288.533,46.829,287.185,45.902,284.615,45.902 M287.712,41.75c0-1.455-1.159-2.403-3.266-2.403h-4.489v5.08h4.362
		c2.002,0,3.393-0.908,3.393-2.635V41.75z M278.314,37.851h6.279c1.685,0,3.014,0.486,3.856,1.308
		c0.612,0.633,0.948,1.41,0.948,2.36v0.042c0,1.918-1.179,2.906-2.339,3.414c1.749,0.527,3.159,1.536,3.159,3.561v0.042
		c0,2.528-2.127,4.023-5.351,4.023h-6.554V37.851z"/>
	<rect x="296.172" y="37.852" fill="#7C8080" width="1.665" height="14.75"/>
	<polygon fill="#7C8080" points="304.575,37.851 315.236,37.851 315.236,39.369 306.238,39.369 306.238,44.405 314.29,44.405 
		314.29,45.923 306.238,45.923 306.238,51.084 315.342,51.084 315.342,52.601 304.575,52.601 	"/>
	<path fill="#7C8080" d="M327.059,45.375c2.211,0,3.792-1.139,3.792-3.036v-0.042c0-1.811-1.39-2.908-3.773-2.908h-4.55v5.986
		H327.059z M320.864,37.851h6.342c1.813,0,3.267,0.548,4.194,1.475c0.717,0.717,1.138,1.749,1.138,2.91v0.042
		c0,2.442-1.687,3.876-4.003,4.298l4.53,6.025h-2.045l-4.275-5.732h-4.216v5.732h-1.664V37.851z"/>
	<polygon fill="#7C8080" points="338.539,37.851 340.097,37.851 349.39,49.672 349.39,37.851 351.012,37.851 351.012,52.601 
		349.685,52.601 340.159,40.508 340.159,52.601 338.539,52.601 	"/>
	<path fill="#7C8080" d="M370.29,45.268v-0.04c0-3.35-2.446-6.092-5.816-6.092c-3.373,0-5.774,2.697-5.774,6.05v0.042
		c0,3.35,2.442,6.09,5.814,6.09C367.885,51.318,370.29,48.62,370.29,45.268 M356.97,45.268v-0.04c0-4.067,3.057-7.63,7.544-7.63
		c4.489,0,7.503,3.519,7.503,7.588v0.042c0,4.067-3.056,7.628-7.543,7.628C359.985,52.856,356.97,49.335,356.97,45.268z"/>
	<path fill="#7C8080" d="M387.315,39.389v11.674h3.456c3.73,0,6.111-2.527,6.111-5.795v-0.042c0-3.266-2.381-5.837-6.111-5.837
		H387.315z M385.651,37.851h5.12c4.636,0,7.839,3.184,7.839,7.335v0.04c0,4.153-3.203,7.375-7.839,7.375h-5.12V37.851z"/>
	<polygon fill="#7C8080" points="403.9,37.851 414.561,37.851 414.561,39.369 405.563,39.369 405.563,44.405 413.613,44.405 
		413.613,45.923 405.563,45.923 405.563,51.084 414.667,51.084 414.667,52.601 403.9,52.601 	"/>
	<polygon fill="#7C8080" points="427.924,37.851 429.586,37.851 429.586,51.063 437.891,51.063 437.891,52.601 427.924,52.601 	"/>
	<path fill="#7C8080" d="M452.22,47.186l-3.352-7.5l-3.37,7.5H452.22z M448.11,37.746h1.558l6.724,14.857h-1.791l-1.728-3.899
		h-8.028l-1.749,3.899h-1.708L448.11,37.746z"/>
	<path fill="#7C8080" d="M238.115,70.557v-0.04c0-4.194,3.159-7.629,7.69-7.629c2.782,0,4.446,0.927,5.817,2.276l-2.065,2.381
		c-1.139-1.034-2.298-1.665-3.772-1.665c-2.488,0-4.279,2.066-4.279,4.595v0.042c0,2.527,1.75,4.634,4.279,4.634
		c1.686,0,2.719-0.673,3.876-1.728l2.065,2.087c-1.517,1.623-3.201,2.633-6.048,2.633C241.339,78.143,238.115,74.793,238.115,70.557
		"/>
	<rect x="254.404" y="63.139" fill="#7C8080" width="3.246" height="14.751"/>
	<path fill="#7C8080" d="M261.395,71.569V63.14h3.245v8.345c0,2.402,1.201,3.643,3.182,3.643c1.98,0,3.181-1.199,3.181-3.536V63.14
		h3.247v8.323c0,4.468-2.509,6.658-6.471,6.658C263.818,78.121,261.395,75.91,261.395,71.569"/>
	<path fill="#7C8080" d="M283.691,74.962c2.655,0,4.447-1.791,4.447-4.404v-0.042c0-2.614-1.791-4.445-4.447-4.445h-2.506v8.892
		H283.691z M277.939,63.14h5.752c4.635,0,7.839,3.183,7.839,7.334v0.041c0,4.15-3.204,7.374-7.839,7.374h-5.752V63.14z"/>
	<path fill="#7C8080" d="M302.133,71.717l-1.96-4.784l-1.96,4.784H302.133z M298.719,63.034h2.992l6.321,14.856h-3.393l-1.349-3.308
		h-6.235l-1.349,3.308h-3.31L298.719,63.034z"/>
	<path fill="#7C8080" d="M316.133,74.962c2.657,0,4.447-1.791,4.447-4.404v-0.042c0-2.614-1.789-4.445-4.447-4.445h-2.506v8.892
		H316.133z M310.382,63.14h5.752c4.636,0,7.839,3.183,7.839,7.334v0.041c0,4.15-3.203,7.374-7.839,7.374h-5.752V63.14z"/>
	<path fill="#7C8080" d="M339.145,74.962c2.655,0,4.446-1.791,4.446-4.404v-0.042c0-2.614-1.791-4.445-4.446-4.445h-2.506v8.892
		H339.145z M333.393,63.14h5.753c4.638,0,7.839,3.183,7.839,7.334v0.041c0,4.15-3.201,7.374-7.839,7.374h-5.753V63.14z"/>
	<polygon fill="#7C8080" points="350.064,63.14 361.189,63.14 361.189,66.028 353.287,66.028 353.287,69.02 360.241,69.02 
		360.241,71.905 353.287,71.905 353.287,75.004 361.296,75.004 361.296,77.89 350.064,77.89 	"/>
	<polygon fill="#7C8080" points="370.715,63.14 374.212,63.14 378.09,69.378 381.966,63.14 385.464,63.14 385.464,77.89 
		382.24,77.89 382.24,68.26 378.09,74.562 378.006,74.562 373.896,68.324 373.896,77.89 370.715,77.89 	"/>
	<path fill="#7C8080" d="M395.508,58.251l2.761,1.201l-2.697,2.529h-2.446L395.508,58.251z M389.334,63.14h11.125v2.888h-7.901
		v2.992h6.952v2.885h-6.952v3.099h8.007v2.886h-11.232V63.14z"/>
	<polygon fill="#7C8080" points="407.792,70.39 402.863,63.139 406.654,63.139 409.752,67.923 412.871,63.139 416.559,63.139 
		411.629,70.348 416.769,77.891 412.976,77.891 409.669,72.834 406.339,77.891 402.651,77.891 	"/>
	<rect x="419.256" y="63.139" fill="#7C8080" width="3.247" height="14.751"/>
	<path fill="#7C8080" d="M425.641,70.557v-0.04c0-4.194,3.159-7.629,7.692-7.629c2.78,0,4.447,0.927,5.816,2.276l-2.067,2.381
		c-1.138-1.034-2.297-1.665-3.771-1.665c-2.487,0-4.276,2.066-4.276,4.595v0.042c0,2.527,1.747,4.634,4.276,4.634
		c1.685,0,2.719-0.673,3.876-1.728l2.067,2.087c-1.519,1.623-3.203,2.633-6.048,2.633C428.865,78.143,425.641,74.793,425.641,70.557
		"/>
	<path fill="#7C8080" d="M453.07,70.557v-0.04c0-2.531-1.856-4.637-4.466-4.637c-2.615,0-4.425,2.066-4.425,4.595v0.042
		c0,2.527,1.852,4.634,4.464,4.634C451.257,75.15,453.07,73.087,453.07,70.557 M440.785,70.557v-0.04
		c0-4.194,3.308-7.629,7.859-7.629c4.553,0,7.818,3.391,7.818,7.587v0.042c0,4.194-3.306,7.626-7.857,7.626
		C444.053,78.143,440.785,74.75,440.785,70.557z"/>
</g>
</svg>
