<?xml version="1.0" encoding="utf-8"?>
<!-- Generator: Adobe Illustrator 16.0.0, SVG Export Plug-In . SVG Version: 6.00 Build 0)  -->
<!DOCTYPE svg PUBLIC "-//W3C//DTD SVG 1.1//EN" "http://www.w3.org/Graphics/SVG/1.1/DTD/svg11.dtd">
<svg version="1.1" id="Layer_1" xmlns="http://www.w3.org/2000/svg" xmlns:xlink="http://www.w3.org/1999/xlink" x="0px" y="0px"
	 width="900px" height="1200px" viewBox="0 0 900 1200" enable-background="new 0 0 900 1200" xml:space="preserve">
<rect fill="#309642" stroke="#000000" stroke-miterlimit="10" width="900" height="1200"/>
<g>
	<path fill="#FFFFFF" d="M610.651,524.02c2.182,3.311,5.19,4.817,9.426,4.915c5.777,0.141,9.459-5.516,9.459-5.516l95.65-122.549
		c7.899-8.233,15.686-1.571,15.686-1.571c7.557,7.895,1.917,15.119,1.917,15.119l-21.389,27.37v0.147
		c-1.839,1.894-2.973,4.468-2.973,7.312c0,2.6,0.951,4.981,2.524,6.82v0.056l21.518,27.268l67.794-86.217l-27.092-34.536
		l-5.003-6.516c-4.399-6.313-14.222-7.787-14.222-7.787H723.36c-10.761,0-16.631,7.453-16.631,7.453L593.047,501.673L610.651,524.02
		z"/>
	<path fill="#FFFFFF" d="M605.833,449.233l-27.195-34.869c-5.528-8.916,2.538-15.298,2.538-15.298
		c10.156-5.925,16.045,3.217,16.045,3.217l22.494,28.893l26.635-34.311l-30.694-39.497c-7.339-10.494-18.51-9.03-18.51-9.03h-36.681
		c-11.732,0-16.777,7.296-16.777,7.296l-32.426,41.159l67.791,86.593L605.833,449.233z"/>
	<path fill="#FFFFFF" d="M710.648,478.964c0,0-3.128-4.85-9.159-4.755c-6.273,0.094-8.808,4.275-8.808,4.275l-96.625,124.083
		c-7.826,8.609-16.256,1.687-16.256,1.687c-7.558-7.896-1.354-15.223-1.354-15.223l21.674-27.84v-0.147
		c1.832-1.894,2.969-4.468,2.969-7.309c0-2.604-0.949-4.985-2.522-6.823v-0.056l-21.515-27.269l-68.014,87.193l37.919,48.002
		l59.583,0.154L728.4,501.66L710.648,478.964z"/>
	<path fill="#FFFFFF" d="M715.646,553.741l27.425,35.283c6.32,8.764-1.659,15.23-1.659,15.23
		c-10.526,7.07-16.959-3.488-16.959-3.488L701.5,571.612l-26.634,34.307l38.412,49.164l59.138-0.152l37.919-48.6l-67.94-86.783
		L715.646,553.741z"/>
	<path fill="#FFFFFF" d="M809.829,516.417c-7.973,0-14.463-6.548-14.463-14.596c0-8.055,6.49-14.603,14.463-14.603
		c7.972,0,14.463,6.548,14.463,14.603C824.292,509.868,817.801,516.417,809.829,516.417 M809.829,474.676
		c-15.165,0-27.496,12.176-27.496,27.144c0,14.961,12.331,27.145,27.496,27.145c15.163,0,27.498-12.183,27.498-27.145
		C837.327,486.852,824.992,474.676,809.829,474.676"/>
	<path fill="#FFFFFF" d="M660.593,306.649c7.972,0,14.463,6.552,14.463,14.596c0,8.047-6.491,14.596-14.463,14.596
		c-7.973,0-14.463-6.549-14.463-14.596C646.13,313.201,652.62,306.649,660.593,306.649 M660.593,348.39
		c15.163,0,27.501-12.172,27.501-27.144c0-14.962-12.338-27.144-27.501-27.144c-15.164,0-27.496,12.182-27.496,27.144
		C633.097,336.218,645.429,348.39,660.593,348.39"/>
	<path fill="#FFFFFF" d="M496.5,501.716c0-8.055,6.484-14.596,14.468-14.596c7.974,0,14.459,6.542,14.459,14.596
		c0,8.047-6.485,14.596-14.459,14.596C502.984,516.312,496.5,509.763,496.5,501.716 M538.465,501.716
		c0-14.969-12.335-27.145-27.497-27.145c-15.164,0-27.507,12.176-27.507,27.145c0,14.962,12.343,27.144,27.507,27.144
		C526.13,528.86,538.465,516.678,538.465,501.716"/>
	<path fill="#FFFFFF" d="M660.632,696.837c-7.975,0-14.463-6.548-14.463-14.597c0-8.055,6.488-14.604,14.463-14.604
		c7.973,0,14.463,6.549,14.463,14.604C675.095,690.289,668.604,696.837,660.632,696.837 M660.632,655.097
		c-15.163,0-27.5,12.172-27.5,27.144c0,14.962,12.337,27.145,27.5,27.145c15.161,0,27.497-12.183,27.497-27.145
		C688.129,667.269,675.793,655.097,660.632,655.097"/>
	<path fill="#FFFFFF" d="M373.58,321.08H57.645V531.76c0,115.631,157.891,150.48,157.891,150.48h0.153
		c0,0,157.891-34.849,157.891-150.48V321.08z M365.89,328.771v202.99c0,24.593-7.735,47.302-22.991,67.497
		c-12.434,16.447-29.874,31.352-51.839,44.281c-33.631,19.813-67.8,28.92-75.453,30.815c-7.623-1.877-41.515-10.901-75.123-30.63
		c-22.046-12.937-39.552-27.846-52.039-44.321c-15.331-20.226-23.11-42.986-23.11-67.642v-202.99H365.89z"/>
	<path fill="#FFFFFF" d="M253.876,388.514v-19.345h-19.9v18.061h-7.773v-18.061h-20.501v18.061h-7.773v-18.061h-20.22v19.357
		l9.866,16.964c0.347,0.594,0.53,1.271,0.53,1.953l0.072,88.602h9.572l-0.094-31.828c0-7.506,8.538-14.325,17.915-14.325
		c9.376,0,17.914,6.819,17.914,14.312l0.092,31.841h9.82l-0.029-33.598c-0.02-0.156-0.033-0.31-0.033-0.47v-16.653
		c0-0.088,0.013-0.173,0.013-0.255l-0.006-12.12c0-0.026-0.007-0.045-0.007-0.065v-5.301l-0.013-20.133
		c-0.007-0.694,0.18-1.377,0.536-1.979L253.876,388.514z"/>
	<path fill="#FFFFFF" d="M180.409,498.106l-0.026-29.358l-3.534,2.123c-1.303,0.781-2.943,0.735-4.194-0.12l-4.265-2.917
		c0.013,0.12,0.019,0.249,0.019,0.375l-0.153,11.311c-0.013,1.189-0.575,2.286-1.486,3.001c0.441,0.147,0.856,0.369,1.231,0.669
		c5.17,4.148,5.553,10.079,4.448,14.916H180.409z"/>
	<path fill="#FFFFFF" d="M215.565,457.66c-5.957,0-10.138,4.246-10.138,6.548l0.091,31.835h20.289l-0.102-31.822
		C225.706,461.905,221.526,457.66,215.565,457.66"/>
	<path fill="#FFFFFF" d="M97.138,498.106c-1.104-2.449-1.933-5.424-2.489-8.929c-0.977-6.127-0.775-11.771-0.768-12.005
		c0.059-1.646,1.156-3.077,2.734-3.574l8.495-2.623l-9.592-6.78c-1.029-0.738-1.636-1.915-1.636-3.178v-10.755
		c0-1.454,0.8-2.783,2.086-3.453l3.743-1.947v-3.665l-3.41-1.378c-1.462-0.594-2.427-2.022-2.427-3.6l-0.015-12.942
		c-0.007-2.133,1.714-3.874,3.854-3.893l11.987-0.109c-0.212-3.174-0.274-7.511,0.496-11.101c1.042-4.857,3.798-10.129,5.121-12.477
		l-0.64-4.488c-0.154-1.117,0.173-2.247,0.914-3.096c0.738-0.85,1.81-1.339,2.934-1.339h6.466c0.735,0,1.457,0.209,2.081,0.604
		l15.798,10.017h7.27c1.059,0,2.074,0.435,2.803,1.198c0.738,0.771,1.126,1.8,1.078,2.855l-0.549,12.457
		c-0.046,1.048-0.512,2.012-1.264,2.695l4.83,0.019c1.052,0,2.061,0.428,2.79,1.193l2.208,2.286l1.666-1.276l2.809-5.912
		c0.64-1.358,2.012-2.221,3.511-2.221h10.314v-2.194l-9.874-16.971c-0.346-0.588-0.529-1.263-0.529-1.953v-24.287
		c0-2.145,1.741-3.886,3.887-3.886h24.113h7.773h20.501h7.773h23.787c2.139,0,3.88,1.741,3.88,3.886v24.287
		c0,0.695-0.183,1.378-0.536,1.979l-10.021,16.958v2.181h10.226c1.505,0,2.871,0.863,3.511,2.221l2.812,5.912l1.666,1.276
		l2.205-2.286c0.731-0.765,1.741-1.193,2.789-1.193l4.831-0.019c-0.748-0.683-1.219-1.646-1.264-2.695l-0.548-12.457
		c-0.045-1.055,0.343-2.084,1.078-2.855c0.728-0.764,1.744-1.198,2.809-1.198h7.264l15.798-10.017
		c0.624-0.395,1.345-0.604,2.08-0.604h6.47c1.124,0,2.195,0.489,2.93,1.339c0.741,0.849,1.074,1.979,0.914,3.096l-0.633,4.488
		c1.316,2.348,4.073,7.62,5.118,12.477c0.768,3.589,0.708,7.927,0.493,11.101l11.994,0.109c2.132,0.02,3.854,1.76,3.847,3.893
		l-0.013,12.942c0,1.578-0.964,3.005-2.431,3.6l-3.403,1.378v3.665l3.74,1.947c1.283,0.67,2.093,1.999,2.093,3.453v10.755
		c0,1.264-0.617,2.44-1.646,3.178l-9.593,6.78l8.496,2.623c1.578,0.497,2.675,1.928,2.737,3.574
		c0.013,0.234,0.206,5.878-0.771,12.005c-0.556,3.505-1.385,6.48-2.489,8.929h14.142c0.059,0,0.114,0.014,0.173,0.02V347.968H83.064
		v150.138H97.138z"/>
	<path fill="#FFFFFF" d="M263.341,483.187c0.366-0.294,0.78-0.523,1.228-0.663c-0.915-0.715-1.47-1.819-1.489-3.009l-0.15-11.313
		c0-0.125,0-0.245,0.016-0.372l-4.262,2.916c-1.257,0.863-2.896,0.909-4.193,0.128l-3.345-2.009l0.02,29.238h7.728
		C257.782,493.272,258.161,487.335,263.341,483.187"/>
	<path fill="#FFFFFF" d="M314.938,578.402c-2.146,0-3.887-1.736-3.887-3.886v-25.39c0-1.888-1.137-4.226-2.9-5.961
		c-1.473-1.45-4.04-3.197-7.981-3.109c-5.951,0.091-9.531,4.703-10.027,9.262v25.198c0,1.032-0.405,2.021-1.137,2.75
		c-0.729,0.729-1.718,1.136-2.75,1.136h-23.087c-2.15,0-3.887-1.736-3.887-3.886v-25.39c0-1.888-1.143-4.226-2.903-5.961
		c-1.477-1.457-4.054-3.197-7.98-3.109c-2.596,0.039-4.938,0.99-6.75,2.674l18.998,96.829
		c26.713-11.846,58.355-31.165,75.437-61.157H314.938z"/>
	<path fill="#FFFFFF" d="M253.197,641.971L226.506,505.88h-21.664l-26.648,136.137c-0.042,0.195-0.101,0.369-0.164,0.549
		c18.528,7.606,33.566,11.473,37.759,12.789c4.263-1.339,19.205-5.183,37.599-12.708
		C253.308,642.426,253.243,642.206,253.197,641.971"/>
	<path fill="#FFFFFF" d="M189.737,542.604c-1.793-1.601-4.076-2.502-6.597-2.534c-0.072-0.007-0.141-0.007-0.207-0.007
		c-3.801,0-6.323,1.686-7.773,3.109c-1.761,1.738-2.904,4.08-2.904,5.967v25.391c0,2.146-1.737,3.887-3.886,3.887H145.28
		c-1.029,0-2.019-0.409-2.747-1.137c-0.728-0.728-1.14-1.721-1.14-2.75v-25.198c-0.493-4.559-4.066-9.171-10.023-9.262
		c-0.075-0.007-0.14-0.007-0.216-0.007c-3.798,0-6.313,1.686-7.767,3.109c-1.763,1.738-2.903,4.08-2.903,5.967v25.391
		c0,2.146-1.737,3.887-3.883,3.887H95.527c17.052,29.894,48.583,49.189,75.244,61.048L189.737,542.604z"/>
	<path fill="#FFFFFF" d="M348.337,505.88H234.426l5.598,28.536c2.496-1.339,5.311-2.087,8.247-2.132
		c5.125-0.096,9.976,1.809,13.559,5.342c3.272,3.217,5.225,7.519,5.225,11.498v21.506l15.317,0.007v-21.513
		c0-0.118,0.007-0.239,0.021-0.354c0.855-9.249,8.449-16.34,17.659-16.486c5.177-0.096,9.965,1.809,13.551,5.342
		c3.27,3.217,5.222,7.519,5.222,11.498v21.506l21.227,0.007c5.317-11.66,8.465-24.776,8.465-39.533v-25.243
		C348.458,505.867,348.396,505.88,348.337,505.88"/>
	<path fill="#FFFFFF" d="M112.713,570.642v-21.503c0-3.988,1.954-8.289,5.223-11.506c3.586-3.524,8.41-5.405,13.554-5.337
		c9.21,0.147,16.801,7.237,17.663,16.48c0.006,0.121,0.012,0.242,0.012,0.362v21.503h15.318v-21.503
		c0-3.988,1.953-8.289,5.226-11.506c3.586-3.524,8.414-5.405,13.557-5.337c2.872,0.039,5.628,0.761,8.088,2.044l5.571-28.46H83.067
		v25.217c0,14.763,3.158,27.886,8.482,39.545H112.713z"/>
	<path fill="#FFFFFF" d="M121.849,490.104h6.31c0.481,0.791,0.749,1.679,0.882,2.617c0.02,0.513,0.046,1.042,0.096,1.571
		c-0.017,1.372-0.255,2.717-0.523,3.814h-22.075c-3.181-2.168-4.775-10.81-4.916-17.914l9.658-2.982
		c1.633-0.503,2.743-2.015,2.743-3.713v-3.727c0-1.263-0.614-2.44-1.646-3.171l-10.729-7.591v-6.395l3.746-1.946
		c1.287-0.669,2.086-1.999,2.086-3.452v-8.636c0-1.584-0.957-3.008-2.419-3.605l-3.42-1.379l-0.007-6.473l10.187-0.095l4.843,7.933
		l0.033,11.065l-3.321,10.494c-0.375,1.179-0.17,2.469,0.568,3.472c0.728,0.996,1.891,1.583,3.129,1.583h2.943
		c1.908,0,3.524-1.375,3.834-3.255c0.287-1.718,1.202-6.683,2.074-8.923c0.666-1.731,3.436-5.457,5.189-7.545
		c1.225-1.466,1.202-3.606-0.055-5.049l-13.358-15.337c-0.258-2.303-0.742-7.78,0.094-11.66c0.905-4.213,3.821-9.572,4.87-11.285
		c0.477-0.771,0.663-1.685,0.536-2.583l-0.193-1.392h0.856l15.798,10.02c0.624,0.396,1.346,0.602,2.08,0.602h4.334l-0.255,5.801
		l-5.095,1.855c-1.545,0.555-2.57,2.031-2.557,3.678l0.022,3.984c0.013,2.136,1.744,3.854,3.876,3.861l13.307,0.04l3.472,3.605
		c1.371,1.424,3.592,1.594,5.156,0.389c0,0,6.052-4.818,6.313-5.37l2.163-4.542h7.75v9.131v5.011c0,0-14.171,4.859-15.351,5.44
		c-0.931,0.458-1.437,4.851-1.277,5.909c0.16,1.055,0.109,1.479,1.633,2.609c0,0,4.132,3.243,5.39,3.697l4.128-3.932l5.458,0.359
		l-0.006,13.107l-5.216,3.129l-16.295-11.157c-1.695-1.163-3.994-0.804-5.258,0.816l-2.554,3.263
		c-1.238,1.588-1.065,3.854,0.408,5.232l9.321,8.734l-0.091,7.107l-9.357,4.151c-1.404,0.631-2.309,2.022-2.309,3.561v1.583
		c0,2.149,1.741,3.886,3.886,3.886h11.258c1.94,2.414,1.176,5.827,0.359,8.002h-25.939c-0.882-0.923-1.335-2.557-1.519-4.376
		c-0.012-0.503-0.045-1.003-0.091-1.506c-0.068-2.465,0.245-5.017,0.581-6.48l6.039-7.728c0.496-0.633,0.777-1.404,0.816-2.204
		l0.18-3.707c0.062-1.333-0.555-2.597-1.64-3.357c-1.081-0.771-2.485-0.931-3.71-0.428l-9.747,3.979
		c-1.271,0.522-2.175,1.672-2.374,3.031l-0.575,3.887l-5.653,1.711c-1.64,0.497-2.763,2.008-2.763,3.72v1.571
		C117.962,488.367,119.703,490.104,121.849,490.104"/>
	<path fill="#FFFFFF" d="M309.491,490.104h-6.31c-0.48,0.791-0.755,1.679-0.881,2.617c-0.021,0.513-0.046,1.042-0.096,1.571
		c0.017,1.372,0.255,2.717,0.523,3.814h22.075c3.181-2.168,4.775-10.81,4.909-17.914l-9.651-2.982
		c-1.632-0.503-2.743-2.015-2.743-3.713v-3.727c0-1.263,0.614-2.44,1.646-3.171l10.729-7.591v-6.395l-3.747-1.946
		c-1.287-0.669-2.086-1.999-2.086-3.452v-8.636c0-1.584,0.957-3.008,2.419-3.605l3.42-1.379l0.006-6.473l-10.194-0.095l-4.836,7.933
		l-0.033,11.065l3.321,10.494c0.376,1.179,0.17,2.469-0.568,3.472c-0.728,0.996-1.891,1.583-3.128,1.583h-2.942
		c-1.908,0-3.53-1.375-3.835-3.255c-0.287-1.718-1.202-6.683-2.074-8.923c-0.666-1.731-3.436-5.457-5.189-7.545
		c-1.225-1.466-1.203-3.606,0.054-5.049l13.358-15.337c0.258-2.303,0.735-7.78-0.094-11.66c-0.904-4.213-3.828-9.572-4.869-11.285
		c-0.478-0.771-0.663-1.685-0.536-2.583l0.193-1.392h-0.856l-15.797,10.02c-0.625,0.396-1.346,0.602-2.081,0.602h-4.334l0.255,5.801
		l5.095,1.855c1.545,0.555,2.57,2.031,2.557,3.678l-0.023,3.984c-0.013,2.136-1.744,3.854-3.876,3.861l-13.307,0.04l-3.472,3.605
		c-1.371,1.424-3.592,1.594-5.156,0.389c0,0-6.052-4.818-6.313-5.37l-2.163-4.542h-7.75v9.131v5.011c0,0,14.171,4.859,15.351,5.44
		c0.931,0.458,1.437,4.851,1.277,5.909c-0.16,1.055-0.108,1.479-1.633,2.609c0,0-4.132,3.243-5.389,3.697l-4.128-3.932l-5.458,0.359
		l0.006,13.107l5.21,3.129l16.301-11.157c1.695-1.163,3.994-0.804,5.258,0.816l2.554,3.263c1.238,1.588,1.065,3.854-0.408,5.232
		l-9.321,8.734l0.091,7.107l9.357,4.151c1.398,0.631,2.309,2.022,2.309,3.561v1.583c0,2.149-1.741,3.886-3.886,3.886h-11.258
		c-1.94,2.414-1.176,5.827-0.359,8.002h25.939c0.882-0.923,1.335-2.557,1.518-4.376c0.014-0.503,0.046-1.003,0.092-1.506
		c0.069-2.465-0.254-5.017-0.581-6.48l-6.04-7.728c-0.496-0.633-0.783-1.404-0.816-2.204l-0.18-3.707
		c-0.063-1.333,0.555-2.597,1.639-3.357c1.082-0.771,2.479-0.931,3.71-0.428l9.747,3.979c1.271,0.522,2.175,1.672,2.374,3.031
		l0.575,3.887l5.653,1.711c1.64,0.497,2.763,2.008,2.763,3.72v1.571C313.377,488.367,311.636,490.104,309.491,490.104"/>
	<path fill="#FFFFFF" d="M58.164,789.914v-0.148c0-14.468,10.622-27.276,26.438-27.276c8.891,0,14.391,2.57,19.665,7.012
		l-3.837,4.52c-4.073-3.544-8.596-6.026-16.053-6.026c-11.673,0-20.041,9.868-20.041,21.618v0.153
		c0,12.582,8.061,21.925,20.87,21.925c6.027,0,11.605-2.341,15.224-5.273v-13.113H84.377v-5.344h21.778v21.023
		c-4.895,4.359-12.281,8.062-21.17,8.062C68.402,817.045,58.164,804.983,58.164,789.914"/>
	<path fill="#FFFFFF" d="M173.23,789.914v-0.148c0-11.979-8.737-21.771-20.792-21.771c-12.059,0-20.642,9.645-20.642,21.618v0.153
		c0,11.98,8.737,21.772,20.789,21.772C164.641,811.538,173.23,801.899,173.23,789.914 M125.618,789.914v-0.148
		c0-14.54,10.922-27.276,26.968-27.276c16.046,0,26.824,12.58,26.824,27.123v0.153c0,14.541-10.921,27.279-26.971,27.279
		C136.386,817.045,125.618,804.453,125.618,789.914"/>
	<path fill="#FFFFFF" d="M223.231,792.177h-16.647v18.606h17.705c7.986,0,12.957-3.537,12.957-9.409v-0.156
		C237.245,795.492,232.421,792.177,223.231,792.177 M234.309,777.333c0-5.198-4.148-8.591-11.679-8.591h-16.046v18.163h15.592
		c7.156,0,12.133-3.24,12.133-9.426V777.333z M200.705,763.394h22.455c6.025,0,10.774,1.73,13.786,4.673
		c2.185,2.264,3.39,5.053,3.39,8.438v0.146c0,6.855-4.22,10.402-8.368,12.207c6.255,1.886,11.305,5.498,11.305,12.736v0.152
		c0,9.037-7.613,14.386-19.136,14.386h-23.431V763.394z"/>
	<rect x="264.517" y="763.396" fill="#FFFFFF" width="5.955" height="52.733"/>
	<polygon fill="#FFFFFF" points="294.539,763.394 332.667,763.394 332.667,768.824 300.493,768.824 300.493,786.822 
		329.276,786.822 329.276,792.249 300.493,792.249 300.493,810.71 333.039,810.71 333.039,816.132 294.539,816.132 	"/>
	<path fill="#FFFFFF" d="M374.904,790.289c7.911,0,13.564-4.061,13.564-10.85v-0.146c0-6.476-4.978-10.404-13.486-10.404h-16.274
		v21.399H374.904z M352.756,763.394h22.673c6.483,0,11.68,1.959,14.999,5.277c2.561,2.561,4.065,6.254,4.065,10.394v0.152
		c0,8.743-6.025,13.861-14.314,15.374l16.202,21.541h-7.313l-15.297-20.493h-15.063v20.493h-5.951V763.394z"/>
	<polygon fill="#FFFFFF" points="415.919,763.394 421.497,763.394 454.719,805.659 454.719,763.394 460.52,763.394 460.52,816.132 
		455.771,816.132 421.719,772.885 421.719,816.132 415.919,816.132 	"/>
	<path fill="#FFFFFF" d="M529.403,789.914v-0.148c0-11.979-8.735-21.771-20.788-21.771c-12.057,0-20.647,9.645-20.647,21.618v0.153
		c0,11.98,8.742,21.772,20.795,21.772C520.818,811.538,529.403,801.899,529.403,789.914 M481.796,789.914v-0.148
		c0-14.54,10.921-27.276,26.967-27.276c16.047,0,26.823,12.58,26.823,27.123v0.153c0,14.541-10.923,27.279-26.971,27.279
		C492.563,817.045,481.796,804.453,481.796,789.914"/>
	<path fill="#FFFFFF" d="M590.243,768.89v41.74h12.354c13.34,0,21.854-9.036,21.854-20.716v-0.154
		c0-11.674-8.515-20.87-21.854-20.87H590.243z M584.291,763.394h18.306c16.575,0,28.027,11.378,28.027,26.219v0.147
		c0,14.851-11.452,26.372-28.027,26.372h-18.306V763.394z"/>
	<polygon fill="#FFFFFF" points="649.502,763.394 687.629,763.394 687.629,768.824 655.456,768.824 655.456,786.822 
		684.239,786.822 684.239,792.249 655.456,792.249 655.456,810.71 688.002,810.71 688.002,816.132 649.502,816.132 	"/>
	<polygon fill="#FFFFFF" points="735.356,763.394 741.308,763.394 741.308,810.63 770.992,810.63 770.992,816.132 735.356,816.132 	
		"/>
	<path fill="#FFFFFF" d="M822.204,796.769l-11.979-26.821l-12.056,26.821H822.204z M807.513,763.017h5.572l24.037,53.115h-6.402
		l-6.185-13.938h-28.701l-6.254,13.938h-6.098L807.513,763.017z"/>
	<path fill="#FFFFFF" d="M57.03,880.288v-0.146c0-14.998,11.297-27.271,27.5-27.271c9.945,0,15.899,3.313,20.795,8.136l-7.384,8.515
		c-4.067-3.701-8.214-5.954-13.485-5.954c-8.891,0-15.299,7.384-15.299,16.429v0.146c0,9.044,6.255,16.575,15.299,16.575
		c6.025,0,9.72-2.407,13.857-6.173l7.385,7.451c-5.425,5.805-11.451,9.424-21.625,9.424C68.557,907.419,57.03,895.434,57.03,880.288
		"/>
	<rect x="115.248" y="853.769" fill="#FFFFFF" width="11.604" height="52.736"/>
	<path fill="#FFFFFF" d="M140.233,883.906v-30.132h11.598v29.832c0,8.586,4.301,13.028,11.378,13.028
		c7.082,0,11.376-4.294,11.376-12.648v-30.212h11.604v29.752c0,15.979-8.968,23.812-23.13,23.812
		C148.901,907.338,140.233,899.424,140.233,883.906"/>
	<path fill="#FFFFFF" d="M219.929,896.038c9.491,0,15.898-6.409,15.898-15.75v-0.149c0-9.344-6.407-15.898-15.898-15.898h-8.962
		v31.798H219.929z M199.362,853.771h20.567c16.574,0,28.029,11.38,28.029,26.22v0.148c0,14.843-11.455,26.371-28.029,26.371h-20.567
		V853.771z"/>
	<path fill="#FFFFFF" d="M285.838,884.438l-7.008-17.106l-7.003,17.106H285.838z M273.633,853.393h10.696l22.607,53.117h-12.133
		l-4.817-11.828h-22.301l-4.82,11.828h-11.833L273.633,853.393z"/>
	<path fill="#FFFFFF" d="M335.871,896.038c9.491,0,15.899-6.409,15.899-15.75v-0.149c0-9.344-6.409-15.898-15.899-15.898h-8.966
		v31.798H335.871z M315.302,853.771h20.569c16.575,0,28.027,11.38,28.027,26.22v0.148c0,14.843-11.452,26.371-28.027,26.371h-20.569
		V853.771z"/>
	<path fill="#FFFFFF" d="M418.113,896.038c9.492,0,15.893-6.409,15.893-15.75v-0.149c0-9.344-6.4-15.898-15.893-15.898h-8.971
		v31.798H418.113z M397.544,853.771h20.569c16.577,0,28.026,11.38,28.026,26.22v0.148c0,14.843-11.45,26.371-28.026,26.371h-20.569
		V853.771z"/>
	<polygon fill="#FFFFFF" points="457.107,853.771 496.884,853.771 496.884,864.092 468.639,864.092 468.639,874.794 493.5,874.794 
		493.5,885.115 468.639,885.115 468.639,896.188 497.267,896.188 497.267,906.51 457.107,906.51 	"/>
	<polygon fill="#FFFFFF" points="530.91,853.771 543.418,853.771 557.277,876.072 571.146,853.771 583.647,853.771 583.647,906.51 
		572.121,906.51 572.121,872.081 557.277,894.607 556.977,894.607 542.289,872.308 542.289,906.51 530.91,906.51 	"/>
	<path fill="#FFFFFF" d="M619.524,836.295l9.864,4.294l-9.639,9.034h-8.738L619.524,836.295z M597.449,853.771h39.781v10.321
		h-28.254v10.702h24.861v10.321h-24.861v11.073h28.629v10.321h-40.156V853.771z"/>
	<polygon fill="#FFFFFF" points="663.428,879.69 645.795,853.771 659.357,853.771 670.437,870.877 681.58,853.771 694.77,853.771 
		677.14,879.545 695.526,906.51 681.963,906.51 670.137,888.429 658.229,906.51 645.048,906.51 	"/>
	<rect x="704.382" y="853.769" fill="#FFFFFF" width="11.604" height="52.736"/>
	<path fill="#FFFFFF" d="M727.204,880.288v-0.146c0-14.998,11.297-27.271,27.496-27.271c9.949,0,15.899,3.313,20.8,8.136
		l-7.386,8.515c-4.065-3.701-8.213-5.954-13.483-5.954c-8.898,0-15.3,7.384-15.3,16.429v0.146c0,9.044,6.255,16.575,15.3,16.575
		c6.023,0,9.719-2.407,13.855-6.173l7.386,7.451c-5.425,5.805-11.451,9.424-21.624,9.424
		C738.73,907.419,727.204,895.434,727.204,880.288"/>
	<path fill="#FFFFFF" d="M825.254,880.288v-0.146c0-9.043-6.633-16.575-15.972-16.575c-9.343,0-15.825,7.384-15.825,16.429v0.146
		c0,9.044,6.636,16.575,15.974,16.575C818.774,896.717,825.254,889.34,825.254,880.288 M781.33,880.288v-0.146
		c0-14.998,11.825-27.271,28.101-27.271s27.951,12.126,27.951,27.125v0.146c0,14.992-11.826,27.277-28.1,27.277
		C793.01,907.419,781.33,895.285,781.33,880.288"/>
</g>
</svg>
